# xmcd CD database file
#
# Track frame offsets:
#	150
#	36253
#	68261
#	101045
#	131986
#	150599
#	174439
#	200075
#	224193
#	245949
#
# Disc length: 3518 seconds
#
# Revision: 0
# Processed by: cddbd v1.4PL0 Copyright (c) Steve Scherf et al.
# Submitted via: CDex 1.50
#
DISCID=9b0dbc0a
DTITLE=Joe Beck Trio - Girl Talk
DYEAR=2002
DGENRE=Jazz
TTITLE0=Gingi
TTITLE1=Emily
TTITLE2=Girl Talk
TTITLE3=Have You Met Miss Jones?
TTITLE4=Laura
TTITLE5=Little Girl Blue
TTITLE6=Nica's Dream
TTITLE7=Ruby
TTITLE8=Sophisticated Lady
TTITLE9=Stella By Starlight
EXTD=YEAR: 2002
EXTT0=
EXTT1=
EXTT2=
EXTT3=
EXTT4=
EXTT5=
EXTT6=
EXTT7=
EXTT8=
EXTT9=
PLAYORDER=
